<svg xmlns="http://www.w3.org/2000/svg" xmlns:xlink="http://www.w3.org/1999/xlink" width="500" zoomAndPan="magnify" viewBox="0 0 375 374.999991" height="500" preserveAspectRatio="xMidYMid meet" version="1.0"><defs><g/><clipPath id="36c56c55c0"><path d="M 27.980469 308.867188 L 346.730469 308.867188 L 346.730469 310.367188 L 27.980469 310.367188 Z M 27.980469 308.867188 " clip-rule="nonzero"/></clipPath><clipPath id="5e3197ab5a"><path d="M 155 40.363281 L 173 40.363281 L 173 59 L 155 59 Z M 155 40.363281 " clip-rule="nonzero"/></clipPath><clipPath id="8790ab6d41"><path d="M 81.742188 155 L 100 155 L 100 174 L 81.742188 174 Z M 81.742188 155 " clip-rule="nonzero"/></clipPath><clipPath id="cb9247a1a8"><path d="M 196 229 L 215 229 L 215 246.613281 L 196 246.613281 Z M 196 229 " clip-rule="nonzero"/></clipPath><clipPath id="a416c79981"><path d="M 270 113 L 287.992188 113 L 287.992188 132 L 270 132 Z M 270 113 " clip-rule="nonzero"/></clipPath></defs><g fill="#1666ae" fill-opacity="1"><g transform="translate(27.980928, 298.586296)"><g><path d="M 3.375 0 L 3.375 -31 L 8.671875 -31 L 8.671875 -5.3125 L 56.53125 -5.3125 L 56.53125 0 Z M 3.375 0 "/></g></g></g><g fill="#1666ae" fill-opacity="1"><g transform="translate(85.295755, 298.586296)"><g><path d="M 37.75 -23 L 37.75 -12.890625 C 37.75 -10.304688 37.109375 -8.046875 35.828125 -6.109375 C 34.546875 -4.171875 32.742188 -2.664062 30.421875 -1.59375 C 28.109375 -0.53125 25.410156 0 22.328125 0 L 17.734375 0 C 14.640625 0 11.9375 -0.53125 9.625 -1.59375 C 7.3125 -2.664062 5.515625 -4.171875 4.234375 -6.109375 C 2.953125 -8.046875 2.3125 -10.304688 2.3125 -12.890625 L 2.3125 -23 L 7.625 -23 L 7.625 -12.84375 C 7.625 -11.382812 8.046875 -10.085938 8.890625 -8.953125 C 9.734375 -7.816406 10.910156 -6.925781 12.421875 -6.28125 C 13.941406 -5.632812 15.710938 -5.3125 17.734375 -5.3125 L 22.328125 -5.3125 C 24.347656 -5.3125 26.113281 -5.625 27.625 -6.25 C 29.144531 -6.882812 30.328125 -7.769531 31.171875 -8.90625 C 32.015625 -10.039062 32.4375 -11.351562 32.4375 -12.84375 L 32.4375 -23 Z M 37.75 -23 "/></g></g></g><g fill="#1666ae" fill-opacity="1"><g transform="translate(125.344542, 298.586296)"><g><path d="M 68.453125 -10.15625 L 68.453125 0 L 63.140625 0 L 63.140625 -10.1875 C 63.140625 -11.675781 62.71875 -12.984375 61.875 -14.109375 C 61.039062 -15.234375 59.863281 -16.109375 58.34375 -16.734375 C 56.820312 -17.367188 55.050781 -17.6875 53.03125 -17.6875 L 48.4375 -17.6875 C 45.6875 -17.6875 43.410156 -17.097656 41.609375 -15.921875 C 39.816406 -14.742188 38.765625 -13.203125 38.453125 -11.296875 C 38.484375 -11.117188 38.5 -10.929688 38.5 -10.734375 C 38.5 -10.546875 38.5 -10.351562 38.5 -10.15625 L 38.5 0 L 33.03125 0 L 33.03125 -10.15625 C 33.03125 -10.351562 33.03125 -10.546875 33.03125 -10.734375 C 33.03125 -10.929688 33.039062 -11.117188 33.0625 -11.296875 C 32.78125 -13.203125 31.734375 -14.742188 29.921875 -15.921875 C 28.117188 -17.097656 25.835938 -17.6875 23.078125 -17.6875 L 8.390625 -17.6875 L 8.390625 0 L 3.078125 0 L 3.078125 -23 L 23.078125 -23 C 25.859375 -23 28.34375 -22.554688 30.53125 -21.671875 C 32.726562 -20.785156 34.488281 -19.554688 35.8125 -17.984375 C 37.125 -19.554688 38.859375 -20.785156 41.015625 -21.671875 C 43.179688 -22.554688 45.65625 -23 48.4375 -23 L 53.03125 -23 C 56.125 -23 58.828125 -22.460938 61.140625 -21.390625 C 63.460938 -20.328125 65.257812 -18.832031 66.53125 -16.90625 C 67.8125 -14.988281 68.453125 -12.738281 68.453125 -10.15625 Z M 68.453125 -10.15625 "/></g></g></g><g fill="#1666ae" fill-opacity="1"><g transform="translate(196.177415, 298.586296)"><g><path d="M 3.078125 0 L 3.078125 -23 L 8.390625 -23 L 8.390625 0 Z M 3.078125 -25.65625 L 3.078125 -31 L 8.390625 -31 L 8.390625 -25.65625 Z M 3.078125 -25.65625 "/></g></g></g><g fill="#1666ae" fill-opacity="1"><g transform="translate(207.674065, 298.586296)"><g><path d="M 38.5 -10.15625 L 38.5 0 L 33.1875 0 L 33.1875 -10.1875 C 33.1875 -11.675781 32.765625 -12.984375 31.921875 -14.109375 C 31.085938 -15.234375 29.910156 -16.109375 28.390625 -16.734375 C 26.878906 -17.367188 25.109375 -17.6875 23.078125 -17.6875 L 8.390625 -17.6875 L 8.390625 0 L 3.078125 0 L 3.078125 -23 L 23.078125 -23 C 26.171875 -23 28.875 -22.460938 31.1875 -21.390625 C 33.507812 -20.328125 35.304688 -18.832031 36.578125 -16.90625 C 37.859375 -14.988281 38.5 -12.738281 38.5 -10.15625 Z M 38.5 -10.15625 "/></g></g></g><g fill="#1666ae" fill-opacity="1"><g transform="translate(248.522995, 298.586296)"><g><path d="M 32.1875 -5.3125 L 32.1875 -9.484375 C 30.8125 -9.054688 29.195312 -8.84375 27.34375 -8.84375 L 12.125 -8.84375 C 10.414062 -8.84375 9.1875 -8.707031 8.4375 -8.4375 C 7.695312 -8.175781 7.328125 -7.722656 7.328125 -7.078125 C 7.328125 -6.460938 7.695312 -6.015625 8.4375 -5.734375 C 9.1875 -5.453125 10.414062 -5.3125 12.125 -5.3125 Z M 27.34375 -23 C 28.519531 -23 29.703125 -22.894531 30.890625 -22.6875 C 32.085938 -22.476562 33.1875 -22.117188 34.1875 -21.609375 C 35.1875 -21.109375 35.976562 -20.394531 36.5625 -19.46875 C 37.15625 -18.539062 37.453125 -17.359375 37.453125 -15.921875 L 37.484375 -15.921875 L 37.484375 0 L 12.125 0 C 8.8125 0 6.296875 -0.632812 4.578125 -1.90625 C 2.867188 -3.1875 2.015625 -4.9375 2.015625 -7.15625 C 2.015625 -9.375 2.867188 -11.09375 4.578125 -12.3125 C 6.296875 -13.539062 8.8125 -14.15625 12.125 -14.15625 L 27.34375 -14.15625 C 29.050781 -14.15625 30.273438 -14.296875 31.015625 -14.578125 C 31.765625 -14.859375 32.140625 -15.304688 32.140625 -15.921875 C 32.140625 -16.566406 31.765625 -17.019531 31.015625 -17.28125 C 30.273438 -17.550781 29.050781 -17.6875 27.34375 -17.6875 L 3.375 -17.6875 L 3.375 -23 Z M 27.34375 -23 "/></g></g></g><g fill="#1666ae" fill-opacity="1"><g transform="translate(288.824464, 298.586296)"><g><path d="M 1.171875 -17.6875 L 1.171875 -23 L 5.3125 -23 L 5.3125 -30.875 L 10.609375 -30.875 L 10.609375 -23 L 16.21875 -23 L 16.21875 -17.6875 L 10.609375 -17.6875 L 10.609375 -11.578125 C 10.609375 -9.703125 11.117188 -8.1875 12.140625 -7.03125 C 13.171875 -5.882812 14.546875 -5.3125 16.265625 -5.3125 L 16.265625 0 C 14.097656 0 12.1875 -0.46875 10.53125 -1.40625 C 8.875 -2.351562 7.585938 -3.6875 6.671875 -5.40625 C 5.765625 -7.132812 5.3125 -9.148438 5.3125 -11.453125 L 5.3125 -17.6875 Z M 1.171875 -17.6875 "/></g></g></g><g fill="#1666ae" fill-opacity="1"><g transform="translate(307.143312, 298.586296)"><g><path d="M 7.796875 -14.109375 L 31.671875 -14.109375 C 31.421875 -15.179688 30.816406 -16.039062 29.859375 -16.6875 C 28.910156 -17.332031 27.773438 -17.65625 26.453125 -17.65625 L 13.015625 -17.65625 C 11.753906 -17.65625 10.671875 -17.34375 9.765625 -16.71875 C 8.867188 -16.101562 8.210938 -15.234375 7.796875 -14.109375 Z M 2.015625 -11.421875 C 2.015625 -13.742188 2.472656 -15.769531 3.390625 -17.5 C 4.304688 -19.226562 5.59375 -20.566406 7.25 -21.515625 C 8.90625 -22.472656 10.828125 -22.953125 13.015625 -22.953125 L 26.453125 -22.953125 C 28.640625 -22.953125 30.554688 -22.472656 32.203125 -21.515625 C 33.847656 -20.566406 35.125 -19.226562 36.03125 -17.5 C 36.945312 -15.769531 37.40625 -13.742188 37.40625 -11.421875 L 37.40625 -8.796875 L 7.796875 -8.796875 C 8.191406 -7.703125 8.84375 -6.847656 9.75 -6.234375 C 10.664062 -5.617188 11.753906 -5.3125 13.015625 -5.3125 L 37.453125 -5.3125 L 37.453125 0 L 13.015625 0 C 10.828125 0 8.90625 -0.460938 7.25 -1.390625 C 5.59375 -2.316406 4.304688 -3.632812 3.390625 -5.34375 C 2.472656 -7.0625 2.015625 -9.085938 2.015625 -11.421875 Z M 2.015625 -11.421875 "/></g></g></g><g clip-path="url(#36c56c55c0)"><path fill="#ffffff" d="M 27.980469 308.933594 L 347.011719 308.933594 L 347.011719 310.394531 L 27.980469 310.394531 Z M 27.980469 308.933594 " fill-opacity="1" fill-rule="nonzero"/></g><path fill="#ffffff" d="M 205.628906 41.878906 C 199.1875 40.863281 193.042969 45.105469 191.753906 51.554688 C 189.214844 64.316406 181.375 69.558594 168.613281 67.019531 C 162 65.703125 155.570312 69.996094 154.253906 76.613281 L 154.253906 76.640625 C 152.953125 83.242188 157.246094 89.65625 163.847656 90.96875 L 163.878906 90.972656 C 170.480469 92.273438 176.890625 87.980469 178.207031 81.378906 C 180.746094 68.617188 188.589844 63.375 201.351562 65.914062 C 207.929688 67.222656 214.394531 62.898438 215.703125 56.324219 C 216.339844 53.125 215.664062 49.828125 213.859375 47.121094 C 212.292969 44.796875 209.925781 43.003906 207.058594 42.195312 Z M 205.628906 41.878906 " fill-opacity="1" fill-rule="evenodd"/><g clip-path="url(#5e3197ab5a)"><path fill="#ffffff" d="M 172.996094 49.183594 C 172.996094 49.761719 172.941406 50.335938 172.828125 50.90625 C 172.714844 51.472656 172.546875 52.023438 172.324219 52.558594 C 172.101562 53.097656 171.832031 53.605469 171.507812 54.085938 C 171.1875 54.566406 170.820312 55.015625 170.410156 55.421875 C 170 55.832031 169.554688 56.199219 169.074219 56.519531 C 168.59375 56.84375 168.082031 57.113281 167.546875 57.335938 C 167.011719 57.558594 166.460938 57.726562 165.894531 57.839844 C 165.324219 57.953125 164.75 58.007812 164.171875 58.007812 C 163.59375 58.007812 163.019531 57.953125 162.449219 57.839844 C 161.882812 57.726562 161.328125 57.558594 160.792969 57.335938 C 160.257812 57.113281 159.75 56.84375 159.269531 56.519531 C 158.785156 56.199219 158.339844 55.832031 157.929688 55.421875 C 157.523438 55.015625 157.15625 54.566406 156.832031 54.085938 C 156.511719 53.605469 156.238281 53.097656 156.019531 52.558594 C 155.796875 52.023438 155.628906 51.472656 155.515625 50.90625 C 155.402344 50.335938 155.347656 49.761719 155.347656 49.183594 C 155.347656 48.605469 155.402344 48.03125 155.515625 47.460938 C 155.628906 46.894531 155.796875 46.339844 156.019531 45.804688 C 156.238281 45.269531 156.511719 44.761719 156.832031 44.28125 C 157.15625 43.800781 157.523438 43.351562 157.929688 42.945312 C 158.339844 42.535156 158.785156 42.167969 159.269531 41.847656 C 159.75 41.523438 160.257812 41.253906 160.792969 41.03125 C 161.328125 40.808594 161.882812 40.640625 162.449219 40.527344 C 163.019531 40.414062 163.59375 40.359375 164.171875 40.359375 C 164.75 40.359375 165.324219 40.414062 165.894531 40.527344 C 166.460938 40.640625 167.011719 40.808594 167.546875 41.03125 C 168.082031 41.253906 168.59375 41.523438 169.074219 41.847656 C 169.554688 42.167969 170 42.535156 170.410156 42.945312 C 170.820312 43.351562 171.1875 43.800781 171.507812 44.28125 C 171.832031 44.761719 172.101562 45.269531 172.324219 45.804688 C 172.546875 46.339844 172.714844 46.894531 172.828125 47.460938 C 172.941406 48.03125 172.996094 48.605469 172.996094 49.183594 Z M 172.996094 49.183594 " fill-opacity="1" fill-rule="nonzero"/></g><path fill="#ffffff" d="M 127.679688 57.058594 C 122.410156 60.890625 121.0625 68.238281 124.714844 73.710938 C 131.941406 84.53125 130.105469 93.78125 119.285156 101.007812 C 113.679688 104.753906 112.171875 112.335938 115.917969 117.941406 L 115.933594 117.96875 C 119.683594 123.554688 127.253906 125.050781 132.851562 121.3125 L 132.871094 121.296875 C 138.460938 117.546875 139.957031 109.976562 136.21875 104.378906 C 128.988281 93.558594 130.828125 84.304688 141.648438 77.078125 C 147.226562 73.351562 148.746094 65.71875 145.019531 60.144531 C 143.203125 57.433594 140.398438 55.582031 137.207031 54.945312 C 134.449219 54.40625 131.511719 54.8125 128.914062 56.261719 Z M 127.679688 57.058594 " fill-opacity="1" fill-rule="evenodd"/><path fill="#ffffff" d="M 112.359375 91.539062 C 112.359375 92.117188 112.304688 92.691406 112.191406 93.257812 C 112.078125 93.828125 111.910156 94.378906 111.6875 94.914062 C 111.46875 95.449219 111.195312 95.957031 110.875 96.441406 C 110.550781 96.921875 110.1875 97.367188 109.777344 97.777344 C 109.367188 98.1875 108.921875 98.554688 108.4375 98.875 C 107.957031 99.195312 107.449219 99.46875 106.914062 99.691406 C 106.378906 99.910156 105.828125 100.078125 105.257812 100.191406 C 104.691406 100.304688 104.117188 100.363281 103.535156 100.363281 C 102.957031 100.363281 102.382812 100.304688 101.816406 100.191406 C 101.246094 100.078125 100.695312 99.910156 100.160156 99.691406 C 99.625 99.46875 99.117188 99.195312 98.632812 98.875 C 98.152344 98.554688 97.707031 98.1875 97.296875 97.777344 C 96.886719 97.367188 96.519531 96.921875 96.199219 96.441406 C 95.875 95.957031 95.605469 95.449219 95.382812 94.914062 C 95.160156 94.378906 94.996094 93.828125 94.882812 93.257812 C 94.769531 92.691406 94.710938 92.117188 94.710938 91.539062 C 94.710938 90.957031 94.769531 90.382812 94.882812 89.816406 C 94.996094 89.246094 95.160156 88.695312 95.382812 88.160156 C 95.605469 87.625 95.875 87.117188 96.199219 86.632812 C 96.519531 86.152344 96.886719 85.707031 97.296875 85.296875 C 97.707031 84.886719 98.152344 84.523438 98.632812 84.199219 C 99.117188 83.878906 99.625 83.605469 100.160156 83.382812 C 100.695312 83.164062 101.246094 82.996094 101.816406 82.882812 C 102.382812 82.769531 102.957031 82.710938 103.535156 82.710938 C 104.117188 82.710938 104.691406 82.769531 105.257812 82.882812 C 105.828125 82.996094 106.378906 83.164062 106.914062 83.382812 C 107.449219 83.605469 107.957031 83.878906 108.4375 84.199219 C 108.921875 84.523438 109.367188 84.886719 109.777344 85.296875 C 110.1875 85.707031 110.550781 86.152344 110.875 86.632812 C 111.195312 87.117188 111.46875 87.625 111.6875 88.160156 C 111.910156 88.695312 112.078125 89.246094 112.191406 89.816406 C 112.304688 90.382812 112.359375 90.957031 112.359375 91.539062 Z M 112.359375 91.539062 " fill-opacity="1" fill-rule="nonzero"/><path fill="#1666ae" d="M 83.300781 122.90625 C 82.285156 129.34375 86.527344 135.496094 92.976562 136.777344 C 105.738281 139.316406 110.980469 147.160156 108.441406 159.921875 C 107.125 166.535156 111.417969 172.960938 118.035156 174.277344 L 118.058594 174.28125 C 124.660156 175.582031 131.074219 171.285156 132.386719 164.683594 L 132.390625 164.65625 C 133.6875 158.054688 129.394531 151.640625 122.792969 150.328125 C 110.03125 147.789062 104.789062 139.941406 107.328125 127.183594 C 108.636719 120.605469 104.316406 114.136719 97.734375 112.828125 C 94.539062 112.191406 91.242188 112.867188 88.539062 114.675781 C 86.207031 116.242188 84.417969 118.605469 83.605469 121.46875 Z M 83.300781 122.90625 " fill-opacity="1" fill-rule="evenodd"/><g clip-path="url(#8790ab6d41)"><path fill="#1666ae" d="M 99.429688 164.363281 C 99.429688 164.941406 99.375 165.515625 99.261719 166.082031 C 99.148438 166.652344 98.980469 167.203125 98.757812 167.738281 C 98.535156 168.273438 98.265625 168.78125 97.941406 169.265625 C 97.621094 169.746094 97.253906 170.191406 96.847656 170.601562 C 96.4375 171.011719 95.988281 171.378906 95.507812 171.699219 C 95.027344 172.019531 94.519531 172.292969 93.984375 172.515625 C 93.449219 172.738281 92.894531 172.902344 92.328125 173.015625 C 91.757812 173.128906 91.183594 173.1875 90.605469 173.1875 C 90.027344 173.1875 89.453125 173.128906 88.882812 173.015625 C 88.316406 172.902344 87.765625 172.738281 87.230469 172.515625 C 86.691406 172.292969 86.183594 172.019531 85.703125 171.699219 C 85.222656 171.378906 84.773438 171.011719 84.367188 170.601562 C 83.957031 170.191406 83.589844 169.746094 83.269531 169.265625 C 82.945312 168.78125 82.675781 168.273438 82.453125 167.738281 C 82.230469 167.203125 82.0625 166.652344 81.949219 166.082031 C 81.835938 165.515625 81.78125 164.941406 81.78125 164.363281 C 81.78125 163.78125 81.835938 163.207031 81.949219 162.640625 C 82.0625 162.070312 82.230469 161.519531 82.453125 160.984375 C 82.675781 160.449219 82.945312 159.941406 83.269531 159.460938 C 83.589844 158.976562 83.957031 158.53125 84.367188 158.121094 C 84.773438 157.710938 85.222656 157.347656 85.703125 157.023438 C 86.183594 156.703125 86.691406 156.429688 87.230469 156.207031 C 87.765625 155.988281 88.316406 155.820312 88.882812 155.707031 C 89.453125 155.59375 90.027344 155.539062 90.605469 155.539062 C 91.183594 155.539062 91.757812 155.59375 92.328125 155.707031 C 92.894531 155.820312 93.449219 155.988281 93.984375 156.207031 C 94.519531 156.429688 95.027344 156.703125 95.507812 157.023438 C 95.988281 157.347656 96.4375 157.710938 96.847656 158.121094 C 97.253906 158.53125 97.621094 158.976562 97.941406 159.460938 C 98.265625 159.941406 98.535156 160.449219 98.757812 160.984375 C 98.980469 161.519531 99.148438 162.070312 99.261719 162.640625 C 99.375 163.207031 99.429688 163.78125 99.429688 164.363281 Z M 99.429688 164.363281 " fill-opacity="1" fill-rule="nonzero"/></g><path fill="#1666ae" d="M 98.480469 200.851562 C 102.3125 206.125 109.664062 207.472656 115.132812 203.820312 C 125.949219 196.589844 135.203125 198.429688 142.429688 209.25 C 146.179688 214.851562 153.757812 216.359375 159.363281 212.617188 L 159.386719 212.601562 C 164.976562 208.851562 166.46875 201.28125 162.730469 195.683594 L 162.714844 195.660156 C 158.964844 190.074219 151.394531 188.574219 145.796875 192.316406 C 134.976562 199.546875 125.722656 197.703125 118.496094 186.886719 C 114.773438 181.3125 107.140625 179.792969 101.5625 183.519531 C 98.851562 185.332031 97 188.136719 96.363281 191.332031 C 95.824219 194.082031 96.230469 197.023438 97.683594 199.621094 Z M 98.480469 200.851562 " fill-opacity="1" fill-rule="evenodd"/><path fill="#1666ae" d="M 141.785156 224.996094 C 141.785156 225.578125 141.726562 226.148438 141.613281 226.71875 C 141.5 227.285156 141.335938 227.839844 141.113281 228.375 C 140.890625 228.910156 140.617188 229.417969 140.296875 229.898438 C 139.976562 230.382812 139.609375 230.828125 139.199219 231.238281 C 138.789062 231.648438 138.34375 232.011719 137.863281 232.335938 C 137.378906 232.65625 136.871094 232.929688 136.335938 233.148438 C 135.800781 233.371094 135.25 233.539062 134.679688 233.652344 C 134.113281 233.765625 133.539062 233.820312 132.960938 233.820312 C 132.378906 233.820312 131.804688 233.765625 131.238281 233.652344 C 130.667969 233.539062 130.117188 233.371094 129.582031 233.148438 C 129.046875 232.929688 128.539062 232.65625 128.058594 232.335938 C 127.574219 232.011719 127.128906 231.648438 126.71875 231.238281 C 126.308594 230.828125 125.945312 230.382812 125.621094 229.898438 C 125.300781 229.417969 125.027344 228.910156 124.804688 228.375 C 124.585938 227.839844 124.417969 227.285156 124.304688 226.71875 C 124.191406 226.148438 124.132812 225.578125 124.132812 224.996094 C 124.132812 224.417969 124.191406 223.84375 124.304688 223.273438 C 124.417969 222.707031 124.585938 222.15625 124.804688 221.621094 C 125.027344 221.085938 125.300781 220.574219 125.621094 220.09375 C 125.945312 219.613281 126.308594 219.167969 126.71875 218.757812 C 127.128906 218.347656 127.574219 217.980469 128.058594 217.660156 C 128.539062 217.335938 129.046875 217.066406 129.582031 216.84375 C 130.117188 216.621094 130.667969 216.453125 131.238281 216.339844 C 131.804688 216.230469 132.378906 216.171875 132.960938 216.171875 C 133.539062 216.171875 134.113281 216.230469 134.679688 216.339844 C 135.25 216.453125 135.800781 216.621094 136.335938 216.84375 C 136.871094 217.066406 137.378906 217.335938 137.863281 217.660156 C 138.34375 217.980469 138.789062 218.347656 139.199219 218.757812 C 139.609375 219.167969 139.976562 219.613281 140.296875 220.09375 C 140.617188 220.574219 140.890625 221.085938 141.113281 221.621094 C 141.335938 222.15625 141.5 222.707031 141.613281 223.273438 C 141.726562 223.84375 141.785156 224.417969 141.785156 224.996094 Z M 141.785156 224.996094 " fill-opacity="1" fill-rule="nonzero"/><path fill="#ffffff" d="M 164.332031 245.234375 C 170.769531 246.25 176.917969 242.003906 178.203125 235.554688 C 180.742188 222.792969 188.585938 217.550781 201.347656 220.089844 C 207.957031 221.402344 214.386719 217.109375 215.699219 210.5 L 215.703125 210.472656 C 217.003906 203.871094 212.707031 197.457031 206.109375 196.144531 L 206.082031 196.140625 C 199.480469 194.839844 193.066406 199.136719 191.753906 205.738281 C 189.214844 218.5 181.371094 223.738281 168.609375 221.199219 C 162.03125 219.894531 155.5625 224.214844 154.253906 230.792969 C 153.617188 233.992188 154.292969 237.285156 156.101562 239.992188 C 157.667969 242.316406 160.03125 244.109375 162.898438 244.917969 Z M 164.332031 245.234375 " fill-opacity="1" fill-rule="evenodd"/><g clip-path="url(#cb9247a1a8)"><path fill="#ffffff" d="M 214.609375 237.925781 C 214.609375 238.503906 214.550781 239.078125 214.4375 239.644531 C 214.328125 240.214844 214.160156 240.765625 213.9375 241.300781 C 213.714844 241.835938 213.445312 242.34375 213.121094 242.828125 C 212.800781 243.308594 212.433594 243.753906 212.023438 244.164062 C 211.613281 244.574219 211.167969 244.941406 210.6875 245.261719 C 210.207031 245.582031 209.695312 245.855469 209.160156 246.078125 C 208.625 246.300781 208.074219 246.464844 207.503906 246.578125 C 206.9375 246.691406 206.363281 246.75 205.785156 246.75 C 205.203125 246.75 204.628906 246.691406 204.0625 246.578125 C 203.496094 246.464844 202.941406 246.300781 202.40625 246.078125 C 201.871094 245.855469 201.363281 245.582031 200.882812 245.261719 C 200.398438 244.941406 199.953125 244.574219 199.542969 244.164062 C 199.132812 243.753906 198.769531 243.308594 198.445312 242.828125 C 198.125 242.34375 197.851562 241.835938 197.632812 241.300781 C 197.410156 240.765625 197.242188 240.214844 197.128906 239.644531 C 197.015625 239.078125 196.960938 238.503906 196.960938 237.925781 C 196.960938 237.34375 197.015625 236.769531 197.128906 236.203125 C 197.242188 235.632812 197.410156 235.082031 197.632812 234.546875 C 197.851562 234.011719 198.125 233.503906 198.445312 233.023438 C 198.769531 232.539062 199.132812 232.09375 199.542969 231.683594 C 199.953125 231.273438 200.398438 230.910156 200.882812 230.585938 C 201.363281 230.265625 201.871094 229.992188 202.40625 229.769531 C 202.941406 229.550781 203.496094 229.382812 204.0625 229.269531 C 204.628906 229.15625 205.203125 229.101562 205.785156 229.101562 C 206.363281 229.101562 206.9375 229.15625 207.503906 229.269531 C 208.074219 229.382812 208.625 229.550781 209.160156 229.769531 C 209.695312 229.992188 210.207031 230.265625 210.6875 230.585938 C 211.167969 230.910156 211.613281 231.273438 212.023438 231.683594 C 212.433594 232.09375 212.800781 232.539062 213.121094 233.023438 C 213.445312 233.503906 213.714844 234.011719 213.9375 234.546875 C 214.160156 235.082031 214.328125 235.632812 214.4375 236.203125 C 214.550781 236.769531 214.609375 237.34375 214.609375 237.925781 Z M 214.609375 237.925781 " fill-opacity="1" fill-rule="nonzero"/></g><path fill="#ffffff" d="M 242.273438 230.054688 C 247.550781 226.21875 248.894531 218.871094 245.238281 213.402344 C 238.007812 202.582031 239.851562 193.328125 250.667969 186.101562 C 256.273438 182.355469 257.78125 174.773438 254.039062 169.167969 L 254.023438 169.144531 C 250.273438 163.558594 242.703125 162.058594 237.105469 165.800781 L 237.082031 165.816406 C 231.496094 169.566406 229.996094 177.136719 233.738281 182.734375 C 240.96875 193.550781 239.125 202.808594 228.304688 210.035156 C 222.730469 213.761719 221.210938 221.386719 224.9375 226.96875 C 226.75 229.679688 229.554688 231.53125 232.75 232.164062 C 235.5 232.703125 238.441406 232.296875 241.039062 230.84375 Z M 242.273438 230.054688 " fill-opacity="1" fill-rule="evenodd"/><path fill="#ffffff" d="M 275.246094 195.574219 C 275.246094 196.152344 275.191406 196.726562 275.078125 197.296875 C 274.964844 197.863281 274.796875 198.414062 274.574219 198.949219 C 274.355469 199.484375 274.082031 199.996094 273.761719 200.476562 C 273.4375 200.957031 273.070312 201.402344 272.664062 201.8125 C 272.253906 202.222656 271.808594 202.589844 271.324219 202.910156 C 270.84375 203.234375 270.335938 203.503906 269.800781 203.726562 C 269.265625 203.949219 268.710938 204.117188 268.144531 204.230469 C 267.574219 204.34375 267 204.398438 266.421875 204.398438 C 265.84375 204.398438 265.269531 204.34375 264.699219 204.230469 C 264.132812 204.117188 263.582031 203.949219 263.046875 203.726562 C 262.511719 203.503906 262 203.234375 261.519531 202.910156 C 261.039062 202.589844 260.59375 202.222656 260.183594 201.8125 C 259.773438 201.402344 259.40625 200.957031 259.085938 200.476562 C 258.761719 199.996094 258.492188 199.484375 258.269531 198.949219 C 258.046875 198.414062 257.878906 197.863281 257.765625 197.296875 C 257.652344 196.726562 257.597656 196.152344 257.597656 195.574219 C 257.597656 194.996094 257.652344 194.421875 257.765625 193.851562 C 257.878906 193.285156 258.046875 192.730469 258.269531 192.195312 C 258.492188 191.660156 258.761719 191.152344 259.085938 190.671875 C 259.40625 190.1875 259.773438 189.742188 260.183594 189.332031 C 260.59375 188.925781 261.039062 188.558594 261.519531 188.234375 C 262 187.914062 262.511719 187.640625 263.046875 187.421875 C 263.582031 187.199219 264.132812 187.03125 264.699219 186.917969 C 265.269531 186.804688 265.84375 186.75 266.421875 186.75 C 267 186.75 267.574219 186.804688 268.144531 186.917969 C 268.710938 187.03125 269.265625 187.199219 269.800781 187.421875 C 270.335938 187.640625 270.84375 187.914062 271.324219 188.234375 C 271.808594 188.558594 272.253906 188.925781 272.664062 189.332031 C 273.070312 189.742188 273.4375 190.1875 273.761719 190.671875 C 274.082031 191.152344 274.355469 191.660156 274.574219 192.195312 C 274.796875 192.730469 274.964844 193.285156 275.078125 193.851562 C 275.191406 194.421875 275.246094 194.996094 275.246094 195.574219 Z M 275.246094 195.574219 " fill-opacity="1" fill-rule="nonzero"/><path fill="#1666ae" d="M 286.65625 164.203125 C 287.675781 157.761719 283.425781 151.617188 276.980469 150.332031 C 264.21875 147.792969 258.976562 139.949219 261.511719 127.1875 C 262.828125 120.574219 258.53125 114.144531 251.921875 112.828125 L 251.894531 112.828125 C 245.292969 111.527344 238.882812 115.824219 237.566406 122.425781 L 237.5625 122.449219 C 236.265625 129.050781 240.558594 135.464844 247.160156 136.777344 C 259.921875 139.316406 265.160156 147.160156 262.621094 159.921875 C 261.316406 166.5 265.636719 172.96875 272.214844 174.273438 C 275.410156 174.914062 278.707031 174.234375 281.410156 172.429688 C 283.742188 170.863281 285.527344 168.5 286.339844 165.632812 Z M 286.65625 164.203125 " fill-opacity="1" fill-rule="evenodd"/><g clip-path="url(#a416c79981)"><path fill="#1666ae" d="M 288.175781 122.75 C 288.175781 123.328125 288.117188 123.902344 288.003906 124.472656 C 287.890625 125.039062 287.722656 125.589844 287.503906 126.125 C 287.28125 126.660156 287.007812 127.171875 286.6875 127.652344 C 286.367188 128.132812 286 128.578125 285.589844 128.988281 C 285.179688 129.398438 284.734375 129.765625 284.253906 130.085938 C 283.769531 130.410156 283.261719 130.679688 282.726562 130.902344 C 282.191406 131.125 281.640625 131.292969 281.070312 131.40625 C 280.503906 131.515625 279.929688 131.574219 279.351562 131.574219 C 278.769531 131.574219 278.195312 131.515625 277.628906 131.40625 C 277.058594 131.292969 276.507812 131.125 275.972656 130.902344 C 275.4375 130.679688 274.929688 130.410156 274.445312 130.085938 C 273.964844 129.765625 273.519531 129.398438 273.109375 128.988281 C 272.699219 128.578125 272.335938 128.132812 272.011719 127.652344 C 271.691406 127.171875 271.417969 126.660156 271.195312 126.125 C 270.976562 125.589844 270.808594 125.039062 270.695312 124.472656 C 270.582031 123.902344 270.523438 123.328125 270.523438 122.75 C 270.523438 122.167969 270.582031 121.597656 270.695312 121.027344 C 270.808594 120.460938 270.976562 119.90625 271.195312 119.371094 C 271.417969 118.835938 271.691406 118.328125 272.011719 117.847656 C 272.335938 117.363281 272.699219 116.917969 273.109375 116.507812 C 273.519531 116.097656 273.964844 115.734375 274.445312 115.410156 C 274.929688 115.089844 275.4375 114.816406 275.972656 114.597656 C 276.507812 114.375 277.058594 114.207031 277.628906 114.09375 C 278.195312 113.980469 278.769531 113.925781 279.351562 113.925781 C 279.929688 113.925781 280.503906 113.980469 281.070312 114.09375 C 281.640625 114.207031 282.191406 114.375 282.726562 114.597656 C 283.261719 114.816406 283.769531 115.089844 284.253906 115.410156 C 284.734375 115.734375 285.179688 116.097656 285.589844 116.507812 C 286 116.917969 286.367188 117.363281 286.6875 117.847656 C 287.007812 118.328125 287.28125 118.835938 287.503906 119.371094 C 287.722656 119.90625 287.890625 120.460938 288.003906 121.027344 C 288.117188 121.597656 288.175781 122.167969 288.175781 122.75 Z M 288.175781 122.75 " fill-opacity="1" fill-rule="nonzero"/></g><path fill="#1666ae" d="M 271.476562 86.257812 C 267.640625 80.988281 260.292969 79.640625 254.824219 83.292969 C 244.007812 90.523438 234.753906 88.683594 227.523438 77.867188 C 223.777344 72.261719 216.195312 70.75 210.589844 74.496094 L 210.566406 74.511719 C 204.976562 78.261719 203.480469 85.832031 207.21875 91.429688 L 207.234375 91.453125 C 210.984375 97.042969 218.554688 98.539062 224.152344 94.800781 C 234.96875 87.570312 244.222656 89.410156 251.453125 100.230469 C 255.179688 105.808594 262.808594 107.324219 268.386719 103.597656 C 271.097656 101.789062 272.953125 98.980469 273.585938 95.785156 C 274.121094 93.035156 273.71875 90.09375 272.265625 87.496094 Z M 271.476562 86.257812 " fill-opacity="1" fill-rule="evenodd"/><path fill="#1666ae" d="M 245.820312 62.109375 C 245.820312 62.691406 245.765625 63.265625 245.652344 63.832031 C 245.539062 64.402344 245.371094 64.953125 245.148438 65.488281 C 244.925781 66.023438 244.65625 66.53125 244.332031 67.015625 C 244.011719 67.496094 243.644531 67.941406 243.234375 68.351562 C 242.828125 68.761719 242.378906 69.125 241.898438 69.449219 C 241.417969 69.769531 240.910156 70.042969 240.375 70.265625 C 239.835938 70.484375 239.285156 70.652344 238.71875 70.765625 C 238.148438 70.878906 237.574219 70.9375 236.996094 70.9375 C 236.417969 70.9375 235.84375 70.878906 235.273438 70.765625 C 234.707031 70.652344 234.152344 70.484375 233.617188 70.265625 C 233.082031 70.042969 232.574219 69.769531 232.09375 69.449219 C 231.613281 69.125 231.164062 68.761719 230.757812 68.351562 C 230.347656 67.941406 229.980469 67.496094 229.660156 67.015625 C 229.335938 66.53125 229.066406 66.023438 228.84375 65.488281 C 228.621094 64.953125 228.453125 64.402344 228.339844 63.832031 C 228.226562 63.265625 228.171875 62.691406 228.171875 62.109375 C 228.171875 61.53125 228.226562 60.957031 228.339844 60.390625 C 228.453125 59.820312 228.621094 59.269531 228.84375 58.734375 C 229.066406 58.199219 229.335938 57.691406 229.660156 57.207031 C 229.980469 56.726562 230.347656 56.28125 230.757812 55.871094 C 231.164062 55.460938 231.613281 55.09375 232.09375 54.773438 C 232.574219 54.453125 233.082031 54.179688 233.617188 53.957031 C 234.152344 53.734375 234.707031 53.570312 235.273438 53.457031 C 235.84375 53.34375 236.417969 53.285156 236.996094 53.285156 C 237.574219 53.285156 238.148438 53.34375 238.71875 53.457031 C 239.285156 53.570312 239.835938 53.734375 240.375 53.957031 C 240.910156 54.179688 241.417969 54.453125 241.898438 54.773438 C 242.378906 55.09375 242.828125 55.460938 243.234375 55.871094 C 243.644531 56.28125 244.011719 56.726562 244.332031 57.207031 C 244.65625 57.691406 244.925781 58.199219 245.148438 58.734375 C 245.371094 59.269531 245.539062 59.820312 245.652344 60.390625 C 245.765625 60.957031 245.820312 61.53125 245.820312 62.109375 Z M 245.820312 62.109375 " fill-opacity="1" fill-rule="nonzero"/><g fill="#1666ae" fill-opacity="1"><g transform="translate(158.517635, 159.263504)"><g><path d="M 45.625 -35.859375 L 54.1875 -35.859375 L 40.515625 -0.328125 C 40.441406 -0.109375 40.269531 0 40 0 C 39.726562 0 39.554688 -0.109375 39.484375 -0.328125 L 27.0625 -32.890625 L 14.65625 -0.328125 C 14.582031 -0.109375 14.410156 0 14.140625 0 C 13.867188 0 13.691406 -0.109375 13.609375 -0.328125 L 0 -35.859375 L 8.5625 -35.859375 L 14.109375 -20.75 L 22.84375 -43.59375 C 22.914062 -43.8125 23.078125 -43.921875 23.328125 -43.921875 L 30.796875 -43.921875 C 31.054688 -43.921875 31.238281 -43.8125 31.34375 -43.59375 L 40.03125 -20.75 Z M 45.625 -35.859375 "/></g></g></g><path stroke-linecap="butt" transform="matrix(0.253532, 0, 0, 0.253532, 148.571011, 95.556191)" fill="none" stroke-linejoin="miter" d="M 96.031281 232.891629 C 97.695275 232.891629 98.527272 233.631182 98.527272 235.110288 L 98.527272 263.999076 C 98.527272 265.324109 97.695275 266.002032 96.031281 266.002032 L 2.447015 266.002032 C 0.813836 266.002032 -0.00275407 265.324109 -0.00275407 263.999076 L -0.00275407 232.891629 Z M 34.03209 198.856785 L -0.00275407 198.856785 L -0.00275407 90.12709 C -0.00275407 88.786651 0.813836 88.124134 2.447015 88.124134 L 31.813431 88.124134 C 33.292537 88.124134 34.03209 88.786651 34.03209 90.12709 Z M 34.03209 198.856785 " stroke="#ffffff" stroke-width="8.33805" stroke-opacity="1" stroke-miterlimit="4"/><g fill="#1666ae" fill-opacity="1"><g transform="translate(148.571011, 162.995579)"><g><path d="M 24.359375 -8.40625 C 24.765625 -8.40625 24.96875 -8.21875 24.96875 -7.84375 L 24.96875 -0.5 C 24.96875 -0.164062 24.765625 0 24.359375 0 L 0.625 0 C 0.207031 0 0 -0.164062 0 -0.5 L 0 -8.40625 Z M 8.625 -17.03125 L 0 -17.03125 L 0 -44.59375 C 0 -44.925781 0.207031 -45.09375 0.625 -45.09375 L 8.0625 -45.09375 C 8.4375 -45.09375 8.625 -44.925781 8.625 -44.59375 Z M 8.625 -17.03125 "/></g></g></g><g fill="#1666ae" fill-opacity="1"><g transform="translate(174.839254, 162.995579)"><g/></g></g><path stroke-linecap="butt" transform="matrix(0.253532, 0, 0, 0.253532, 196.359937, 95.556191)" fill="none" stroke-linejoin="miter" d="M 87.835106 167.256303 C 97.171962 171.570362 104.320974 177.841155 109.282142 186.099496 C 114.274124 194.311616 116.770116 203.679287 116.770116 214.217917 C 116.770116 225.326619 114.120051 234.740512 108.850736 242.444189 C 103.596828 250.147865 96.771371 256.018067 88.374363 260.023979 C 80.023577 264.014484 71.10272 266.002032 61.61179 266.002032 C 61.61179 266.002032 61.55016 266.002032 61.396087 266.002032 L 61.396087 233.970144 C 61.55016 233.970144 61.61179 233.970144 61.61179 233.970144 C 67.559028 233.970144 72.751306 232.167484 77.204032 228.546756 C 81.641349 224.895213 83.875416 220.118933 83.875416 214.217917 C 83.875416 209.765191 82.719864 205.974982 80.393354 202.862697 C 78.113065 199.750412 75.262705 197.31605 71.826865 195.544204 C 68.42184 193.726136 65.016815 192.755473 61.61179 192.616807 C 60.856829 192.616807 57.88321 192.354882 52.721747 191.846439 C 47.544876 191.337997 41.674674 189.612373 35.126549 186.638754 C 25.974581 182.340102 18.856383 176.362049 13.802771 168.720001 C 8.764567 161.093361 6.253168 152.080059 6.253168 141.695503 C 6.253168 130.586801 8.872418 121.034242 14.126326 113.037825 C 19.411048 105.041409 26.26732 98.878467 34.695143 94.579816 C 43.169187 90.265757 52.136267 88.124134 61.61179 88.124134 C 71.85768 88.124134 81.05587 90.234942 89.190953 94.471964 C 97.341443 98.708986 103.812531 104.640818 108.619626 112.267458 C 113.442127 119.909505 115.922711 128.753326 116.061377 138.814328 C 116.246266 139.107068 116.061377 139.492252 115.52212 139.954472 C 115.013677 140.385878 114.381976 140.601581 113.627016 140.601581 L 85.83215 140.601581 C 85.24667 140.601581 84.692005 140.385878 84.137341 139.954472 C 83.644305 139.492252 83.38238 139.107068 83.38238 138.814328 C 83.243714 132.451091 81.009648 127.736441 76.710996 124.701192 C 72.443159 121.665943 67.404955 120.140615 61.61179 120.140615 C 55.541292 120.140615 50.302792 121.97409 45.927104 125.625633 C 41.551415 129.246361 39.363571 134.60812 39.363571 141.695503 C 39.363571 148.05874 41.659267 152.927464 46.250658 156.301674 C 50.857457 159.629663 55.972698 161.293657 61.61179 161.293657 C 62.058603 161.293657 63.522302 161.355286 66.018293 161.50936 C 68.545099 161.648026 71.780643 162.141061 75.724926 162.973058 C 79.669208 163.774241 83.705935 165.191717 87.835106 167.256303 Z M 87.835106 167.256303 " stroke="#ffffff" stroke-width="8.060115" stroke-opacity="1" stroke-miterlimit="4"/><g fill="#1666ae" fill-opacity="1"><g transform="translate(197.944509, 162.995579)"><g><path d="M 20.6875 -25.03125 C 23.050781 -23.9375 24.863281 -22.347656 26.125 -20.265625 C 27.382812 -18.179688 28.015625 -15.804688 28.015625 -13.140625 C 28.015625 -10.316406 27.347656 -7.925781 26.015625 -5.96875 C 24.679688 -4.019531 22.953125 -2.535156 20.828125 -1.515625 C 18.703125 -0.503906 16.4375 0 14.03125 0 C 14.03125 0 14.015625 0 13.984375 0 L 13.984375 -8.125 C 14.015625 -8.125 14.03125 -8.125 14.03125 -8.125 C 15.539062 -8.125 16.859375 -8.582031 17.984375 -9.5 C 19.109375 -10.414062 19.671875 -11.628906 19.671875 -13.140625 C 19.671875 -14.265625 19.378906 -15.21875 18.796875 -16 C 18.210938 -16.789062 17.488281 -17.410156 16.625 -17.859375 C 15.757812 -18.316406 14.894531 -18.566406 14.03125 -18.609375 C 13.84375 -18.609375 13.09375 -18.671875 11.78125 -18.796875 C 10.46875 -18.929688 8.984375 -19.375 7.328125 -20.125 C 4.992188 -21.21875 3.1875 -22.726562 1.90625 -24.65625 C 0.632812 -26.59375 0 -28.878906 0 -31.515625 C 0 -34.328125 0.664062 -36.75 2 -38.78125 C 3.332031 -40.8125 5.066406 -42.367188 7.203125 -43.453125 C 9.347656 -44.546875 11.625 -45.09375 14.03125 -45.09375 C 16.625 -45.09375 18.953125 -44.554688 21.015625 -43.484375 C 23.085938 -42.421875 24.734375 -40.921875 25.953125 -38.984375 C 27.179688 -37.046875 27.8125 -34.800781 27.84375 -32.25 C 27.882812 -32.175781 27.835938 -32.082031 27.703125 -31.96875 C 27.578125 -31.851562 27.421875 -31.796875 27.234375 -31.796875 L 20.1875 -31.796875 C 20.03125 -31.796875 19.882812 -31.851562 19.75 -31.96875 C 19.625 -32.082031 19.5625 -32.175781 19.5625 -32.25 C 19.519531 -33.863281 18.953125 -35.054688 17.859375 -35.828125 C 16.773438 -36.597656 15.5 -36.984375 14.03125 -36.984375 C 12.488281 -36.984375 11.164062 -36.519531 10.0625 -35.59375 C 8.957031 -34.675781 8.40625 -33.316406 8.40625 -31.515625 C 8.40625 -29.898438 8.984375 -28.664062 10.140625 -27.8125 C 11.304688 -26.96875 12.601562 -26.546875 14.03125 -26.546875 C 14.144531 -26.546875 14.519531 -26.523438 15.15625 -26.484375 C 15.800781 -26.453125 16.617188 -26.332031 17.609375 -26.125 C 18.609375 -25.914062 19.632812 -25.550781 20.6875 -25.03125 Z M 20.6875 -25.03125 "/></g></g></g><g fill="#1666ae" fill-opacity="1"><g transform="translate(78.426424, 329.941718)"><g><path d="M 8.859375 -0.015625 L 0.390625 -13.546875 L 3.109375 -13.546875 L 10.03125 -2.5 L 17.234375 -13.546875 L 19.625 -13.546875 L 26.859375 -2.484375 L 33.75 -13.546875 L 36.484375 -13.546875 L 28.015625 0 L 25.6875 0 L 18.421875 -11.15625 L 11.15625 0 L 8.828125 0 Z M 8.859375 -0.015625 "/></g></g></g><g fill="#1666ae" fill-opacity="1"><g transform="translate(115.296085, 329.941718)"><g><path d="M 3.40625 -6.171875 L 13.84375 -6.171875 C 13.726562 -6.628906 13.460938 -7 13.046875 -7.28125 C 12.628906 -7.570312 12.132812 -7.71875 11.5625 -7.71875 L 5.6875 -7.71875 C 5.132812 -7.71875 4.660156 -7.582031 4.265625 -7.3125 C 3.878906 -7.039062 3.59375 -6.660156 3.40625 -6.171875 Z M 0.890625 -4.984375 C 0.890625 -6.003906 1.085938 -6.890625 1.484375 -7.640625 C 1.878906 -8.398438 2.4375 -8.988281 3.15625 -9.40625 C 3.882812 -9.820312 4.726562 -10.03125 5.6875 -10.03125 L 11.5625 -10.03125 C 12.519531 -10.03125 13.351562 -9.820312 14.0625 -9.40625 C 14.78125 -8.988281 15.335938 -8.398438 15.734375 -7.640625 C 16.140625 -6.890625 16.34375 -6.003906 16.34375 -4.984375 L 16.34375 -3.84375 L 3.40625 -3.84375 C 3.570312 -3.363281 3.851562 -2.988281 4.25 -2.71875 C 4.65625 -2.445312 5.132812 -2.3125 5.6875 -2.3125 L 16.359375 -2.3125 L 16.359375 0 L 5.6875 0 C 4.726562 0 3.882812 -0.203125 3.15625 -0.609375 C 2.4375 -1.015625 1.878906 -1.585938 1.484375 -2.328125 C 1.085938 -3.078125 0.890625 -3.960938 0.890625 -4.984375 Z M 0.890625 -4.984375 "/></g></g></g><g fill="#1666ae" fill-opacity="1"><g transform="translate(132.709311, 329.941718)"><g><path d="M 3.65625 -7.71875 L 3.65625 -2.3125 L 12.015625 -2.3125 C 12.765625 -2.3125 13.363281 -2.546875 13.8125 -3.015625 C 14.269531 -3.492188 14.5 -4.144531 14.5 -4.96875 C 14.5 -5.800781 14.269531 -6.46875 13.8125 -6.96875 C 13.363281 -7.46875 12.765625 -7.71875 12.015625 -7.71875 Z M 1.34375 0 L 1.34375 -13.546875 L 3.65625 -13.546875 L 3.65625 -10.03125 L 12.015625 -10.03125 C 12.984375 -10.03125 13.828125 -9.820312 14.546875 -9.40625 C 15.265625 -8.988281 15.820312 -8.398438 16.21875 -7.640625 C 16.625 -6.890625 16.828125 -6.003906 16.828125 -4.984375 C 16.828125 -3.960938 16.625 -3.078125 16.21875 -2.328125 C 15.820312 -1.585938 15.265625 -1.015625 14.546875 -0.609375 C 13.828125 -0.203125 12.984375 0 12.015625 0 Z M 1.34375 0 "/></g></g></g><g fill="#1666ae" fill-opacity="1"><g transform="translate(150.417054, 329.941718)"><g/></g></g><g fill="#1666ae" fill-opacity="1"><g transform="translate(160.964392, 329.941718)"><g><path d="M 0.96875 -9.609375 C 0.96875 -10.421875 1.164062 -11.117188 1.5625 -11.703125 C 1.96875 -12.296875 2.53125 -12.75 3.25 -13.0625 C 3.976562 -13.382812 4.820312 -13.546875 5.78125 -13.546875 L 24.1875 -13.546875 L 24.1875 -11.203125 L 5.78125 -11.203125 C 5.03125 -11.203125 4.425781 -11.0625 3.96875 -10.78125 C 3.519531 -10.5 3.296875 -10.097656 3.296875 -9.578125 C 3.296875 -9.046875 3.519531 -8.640625 3.96875 -8.359375 C 4.425781 -8.078125 5.03125 -7.9375 5.78125 -7.9375 L 19.375 -7.9375 C 20.34375 -7.9375 21.1875 -7.773438 21.90625 -7.453125 C 22.625 -7.128906 23.179688 -6.675781 23.578125 -6.09375 C 23.984375 -5.519531 24.1875 -4.828125 24.1875 -4.015625 C 24.1875 -3.203125 23.984375 -2.492188 23.578125 -1.890625 C 23.179688 -1.296875 22.625 -0.832031 21.90625 -0.5 C 21.1875 -0.164062 20.34375 0 19.375 0 L 0.96875 0 L 0.96875 -2.3125 L 19.375 -2.3125 C 20.125 -2.3125 20.722656 -2.457031 21.171875 -2.75 C 21.628906 -3.039062 21.859375 -3.441406 21.859375 -3.953125 C 21.859375 -4.484375 21.628906 -4.890625 21.171875 -5.171875 C 20.722656 -5.460938 20.125 -5.609375 19.375 -5.609375 L 5.78125 -5.609375 C 4.820312 -5.609375 3.976562 -5.773438 3.25 -6.109375 C 2.53125 -6.441406 1.96875 -6.90625 1.5625 -7.5 C 1.164062 -8.101562 0.96875 -8.804688 0.96875 -9.609375 Z M 0.96875 -9.609375 "/></g></g></g><g fill="#1666ae" fill-opacity="1"><g transform="translate(186.127059, 329.941718)"><g><path d="M 3.203125 -4.96875 C 3.203125 -4.144531 3.425781 -3.492188 3.875 -3.015625 C 4.332031 -2.546875 4.9375 -2.3125 5.6875 -2.3125 L 11.5625 -2.3125 C 12.3125 -2.3125 12.910156 -2.546875 13.359375 -3.015625 C 13.816406 -3.492188 14.046875 -4.144531 14.046875 -4.96875 C 14.046875 -5.800781 13.816406 -6.46875 13.359375 -6.96875 C 12.910156 -7.46875 12.3125 -7.71875 11.5625 -7.71875 L 5.6875 -7.71875 C 4.9375 -7.71875 4.332031 -7.46875 3.875 -6.96875 C 3.425781 -6.46875 3.203125 -5.800781 3.203125 -4.96875 Z M 5.6875 0 C 4.726562 0 3.882812 -0.203125 3.15625 -0.609375 C 2.4375 -1.015625 1.878906 -1.585938 1.484375 -2.328125 C 1.085938 -3.078125 0.890625 -3.960938 0.890625 -4.984375 C 0.890625 -6.003906 1.085938 -6.890625 1.484375 -7.640625 C 1.878906 -8.398438 2.4375 -8.988281 3.15625 -9.40625 C 3.882812 -9.820312 4.726562 -10.03125 5.6875 -10.03125 L 11.5625 -10.03125 C 12.53125 -10.03125 13.375 -9.820312 14.09375 -9.40625 C 14.8125 -8.988281 15.367188 -8.398438 15.765625 -7.640625 C 16.160156 -6.890625 16.359375 -6.003906 16.359375 -4.984375 C 16.359375 -3.960938 16.160156 -3.078125 15.765625 -2.328125 C 15.367188 -1.585938 14.8125 -1.015625 14.09375 -0.609375 C 13.375 -0.203125 12.53125 0 11.5625 0 Z M 5.6875 0 "/></g></g></g><g fill="#1666ae" fill-opacity="1"><g transform="translate(203.374624, 329.941718)"><g><path d="M 3.65625 0 L 1.34375 0 L 1.34375 -13.546875 L 3.65625 -13.546875 Z M 3.65625 0 "/></g></g></g><g fill="#1666ae" fill-opacity="1"><g transform="translate(208.399797, 329.941718)"><g><path d="M 16.484375 -10.046875 L 16.484375 -5.625 C 16.484375 -4.5 16.203125 -3.515625 15.640625 -2.671875 C 15.085938 -1.828125 14.304688 -1.171875 13.296875 -0.703125 C 12.285156 -0.234375 11.101562 0 9.75 0 L 7.75 0 C 6.394531 0 5.210938 -0.234375 4.203125 -0.703125 C 3.191406 -1.171875 2.40625 -1.828125 1.84375 -2.671875 C 1.289062 -3.515625 1.015625 -4.5 1.015625 -5.625 L 1.015625 -10.046875 L 3.328125 -10.046875 L 3.328125 -5.609375 C 3.328125 -4.972656 3.507812 -4.40625 3.875 -3.90625 C 4.25 -3.414062 4.765625 -3.023438 5.421875 -2.734375 C 6.085938 -2.453125 6.863281 -2.3125 7.75 -2.3125 L 9.75 -2.3125 C 10.632812 -2.3125 11.40625 -2.445312 12.0625 -2.71875 C 12.726562 -3 13.242188 -3.390625 13.609375 -3.890625 C 13.984375 -4.390625 14.171875 -4.960938 14.171875 -5.609375 L 14.171875 -10.046875 Z M 16.484375 -10.046875 "/></g></g></g><g fill="#1666ae" fill-opacity="1"><g transform="translate(225.905066, 329.941718)"><g><path d="M 0.515625 -7.734375 L 0.515625 -10.046875 L 2.3125 -10.046875 L 2.3125 -13.484375 L 4.640625 -13.484375 L 4.640625 -10.046875 L 7.09375 -10.046875 L 7.09375 -7.734375 L 4.640625 -7.734375 L 4.640625 -5.0625 C 4.640625 -4.238281 4.863281 -3.570312 5.3125 -3.0625 C 5.757812 -2.5625 6.359375 -2.3125 7.109375 -2.3125 L 7.109375 0 C 6.160156 0 5.320312 -0.203125 4.59375 -0.609375 C 3.875 -1.023438 3.3125 -1.609375 2.90625 -2.359375 C 2.507812 -3.117188 2.3125 -4 2.3125 -5 L 2.3125 -7.734375 Z M 0.515625 -7.734375 "/></g></g></g><g fill="#1666ae" fill-opacity="1"><g transform="translate(233.912202, 329.941718)"><g><path d="M 1.34375 0 L 1.34375 -10.046875 L 3.65625 -10.046875 L 3.65625 0 Z M 1.34375 -11.203125 L 1.34375 -13.546875 L 3.65625 -13.546875 L 3.65625 -11.203125 Z M 1.34375 -11.203125 "/></g></g></g><g fill="#1666ae" fill-opacity="1"><g transform="translate(238.937375, 329.941718)"><g><path d="M 3.203125 -4.96875 C 3.203125 -4.144531 3.425781 -3.492188 3.875 -3.015625 C 4.332031 -2.546875 4.9375 -2.3125 5.6875 -2.3125 L 11.5625 -2.3125 C 12.3125 -2.3125 12.910156 -2.546875 13.359375 -3.015625 C 13.816406 -3.492188 14.046875 -4.144531 14.046875 -4.96875 C 14.046875 -5.800781 13.816406 -6.46875 13.359375 -6.96875 C 12.910156 -7.46875 12.3125 -7.71875 11.5625 -7.71875 L 5.6875 -7.71875 C 4.9375 -7.71875 4.332031 -7.46875 3.875 -6.96875 C 3.425781 -6.46875 3.203125 -5.800781 3.203125 -4.96875 Z M 5.6875 0 C 4.726562 0 3.882812 -0.203125 3.15625 -0.609375 C 2.4375 -1.015625 1.878906 -1.585938 1.484375 -2.328125 C 1.085938 -3.078125 0.890625 -3.960938 0.890625 -4.984375 C 0.890625 -6.003906 1.085938 -6.890625 1.484375 -7.640625 C 1.878906 -8.398438 2.4375 -8.988281 3.15625 -9.40625 C 3.882812 -9.820312 4.726562 -10.03125 5.6875 -10.03125 L 11.5625 -10.03125 C 12.53125 -10.03125 13.375 -9.820312 14.09375 -9.40625 C 14.8125 -8.988281 15.367188 -8.398438 15.765625 -7.640625 C 16.160156 -6.890625 16.359375 -6.003906 16.359375 -4.984375 C 16.359375 -3.960938 16.160156 -3.078125 15.765625 -2.328125 C 15.367188 -1.585938 14.8125 -1.015625 14.09375 -0.609375 C 13.375 -0.203125 12.53125 0 11.5625 0 Z M 5.6875 0 "/></g></g></g><g fill="#1666ae" fill-opacity="1"><g transform="translate(256.184949, 329.941718)"><g><path d="M 16.828125 -4.4375 L 16.828125 0 L 14.5 0 L 14.5 -4.453125 C 14.5 -5.109375 14.316406 -5.679688 13.953125 -6.171875 C 13.585938 -6.660156 13.070312 -7.039062 12.40625 -7.3125 C 11.738281 -7.59375 10.96875 -7.734375 10.09375 -7.734375 L 3.65625 -7.734375 L 3.65625 0 L 1.34375 0 L 1.34375 -10.046875 L 10.09375 -10.046875 C 11.4375 -10.046875 12.613281 -9.8125 13.625 -9.34375 C 14.632812 -8.882812 15.421875 -8.234375 15.984375 -7.390625 C 16.546875 -6.546875 16.828125 -5.5625 16.828125 -4.4375 Z M 16.828125 -4.4375 "/></g></g></g><g fill="#1666ae" fill-opacity="1"><g transform="translate(274.039937, 329.941718)"><g><path d="M 1.03125 -7 C 1.03125 -7.96875 1.40625 -8.71875 2.15625 -9.25 C 2.90625 -9.78125 4.003906 -10.046875 5.453125 -10.046875 L 15.921875 -10.046875 L 15.921875 -7.734375 L 5.453125 -7.734375 C 4.703125 -7.734375 4.160156 -7.671875 3.828125 -7.546875 C 3.503906 -7.429688 3.34375 -7.234375 3.34375 -6.953125 C 3.34375 -6.679688 3.503906 -6.484375 3.828125 -6.359375 C 4.160156 -6.242188 4.703125 -6.1875 5.453125 -6.1875 L 12.09375 -6.1875 C 13.539062 -6.1875 14.640625 -5.914062 15.390625 -5.375 C 16.140625 -4.84375 16.515625 -4.09375 16.515625 -3.125 C 16.515625 -2.15625 16.140625 -1.390625 15.390625 -0.828125 C 14.640625 -0.273438 13.539062 0 12.09375 0 L 1.03125 0 L 1.03125 -2.3125 L 12.09375 -2.3125 C 12.84375 -2.3125 13.378906 -2.375 13.703125 -2.5 C 14.023438 -2.625 14.1875 -2.820312 14.1875 -3.09375 C 14.1875 -3.375 14.023438 -3.570312 13.703125 -3.6875 C 13.378906 -3.800781 12.84375 -3.859375 12.09375 -3.859375 L 5.453125 -3.859375 C 4.003906 -3.859375 2.90625 -4.140625 2.15625 -4.703125 C 1.40625 -5.265625 1.03125 -6.03125 1.03125 -7 Z M 1.03125 -7 "/></g></g></g></svg>